<mxfile host="app.diagrams.net" agent="Mozilla/5.0 (Windows NT 10.0; Win64; x64) AppleWebKit/537.36 (KHTML, like Gecko) Chrome/135.0.0.0 Safari/537.36" version="26.2.13">
  <diagram name="Page-1" id="9361dd3d-8414-5efd-6122-117bd74ce7a7">
    <mxGraphModel dx="1923" dy="1358" grid="1" gridSize="10" guides="1" tooltips="1" connect="1" arrows="1" fold="1" page="0" pageScale="1.5" pageWidth="826" pageHeight="1169" background="none" math="0" shadow="0">
      <root>
        <mxCell id="0" />
        <mxCell id="1" parent="0" />
        <mxCell id="-S9vXnGe0rzKB2e50dyQ-141" value="Password Reset Flow" style="rounded=1;fontStyle=1;fillColor=#FFD966;strokeColor=none" parent="1" vertex="1">
          <mxGeometry x="70" y="-60" width="220" height="70" as="geometry" />
        </mxCell>
        <mxCell id="-S9vXnGe0rzKB2e50dyQ-194" value="clicks reset pw" style="edgeStyle=orthogonalEdgeStyle;rounded=0;orthogonalLoop=1;jettySize=auto;html=1;curved=0;" parent="1" edge="1">
          <mxGeometry x="-0.0689" y="10" relative="1" as="geometry">
            <mxPoint x="124.66666666666652" y="210" as="sourcePoint" />
            <mxPoint x="265" y="210" as="targetPoint" />
            <Array as="points">
              <mxPoint x="180" y="210" />
              <mxPoint x="180" y="210" />
            </Array>
            <mxPoint as="offset" />
          </mxGeometry>
        </mxCell>
        <mxCell id="-S9vXnGe0rzKB2e50dyQ-215" value="views form" style="edgeStyle=orthogonalEdgeStyle;rounded=0;orthogonalLoop=1;jettySize=auto;html=1;curved=0;" parent="1" source="-S9vXnGe0rzKB2e50dyQ-147" target="-S9vXnGe0rzKB2e50dyQ-193" edge="1">
          <mxGeometry x="-0.0689" y="10" relative="1" as="geometry">
            <Array as="points">
              <mxPoint x="240" y="180" />
              <mxPoint x="240" y="180" />
            </Array>
            <mxPoint as="offset" />
          </mxGeometry>
        </mxCell>
        <mxCell id="msFe4LkzLdmL3rLmu3Hh-1" value="opens email and clicks link" style="edgeStyle=orthogonalEdgeStyle;rounded=0;orthogonalLoop=1;jettySize=auto;html=1;curved=0;" edge="1" parent="1" source="-S9vXnGe0rzKB2e50dyQ-147" target="-S9vXnGe0rzKB2e50dyQ-167">
          <mxGeometry x="-0.1627" y="10" relative="1" as="geometry">
            <Array as="points">
              <mxPoint x="750" y="460" />
              <mxPoint x="750" y="460" />
            </Array>
            <mxPoint as="offset" />
          </mxGeometry>
        </mxCell>
        <mxCell id="msFe4LkzLdmL3rLmu3Hh-9" value="types new password" style="edgeStyle=orthogonalEdgeStyle;rounded=0;orthogonalLoop=1;jettySize=auto;html=1;curved=0;" edge="1" parent="1" source="-S9vXnGe0rzKB2e50dyQ-147" target="msFe4LkzLdmL3rLmu3Hh-2">
          <mxGeometry x="-0.4213" y="10" relative="1" as="geometry">
            <Array as="points">
              <mxPoint x="330" y="560" />
              <mxPoint x="330" y="560" />
            </Array>
            <mxPoint as="offset" />
          </mxGeometry>
        </mxCell>
        <mxCell id="msFe4LkzLdmL3rLmu3Hh-14" value="views form" style="edgeStyle=orthogonalEdgeStyle;rounded=0;orthogonalLoop=1;jettySize=auto;html=1;curved=0;" edge="1" parent="1" source="-S9vXnGe0rzKB2e50dyQ-147" target="msFe4LkzLdmL3rLmu3Hh-12">
          <mxGeometry x="-0.0689" y="15" relative="1" as="geometry">
            <Array as="points">
              <mxPoint x="180" y="725" />
              <mxPoint x="180" y="725" />
            </Array>
            <mxPoint as="offset" />
          </mxGeometry>
        </mxCell>
        <mxCell id="-S9vXnGe0rzKB2e50dyQ-147" value="" style="shape=umlLifeline;perimeter=lifelinePerimeter;whiteSpace=wrap;html=1;container=1;dropTarget=0;collapsible=0;recursiveResize=0;outlineConnect=0;portConstraint=eastwest;newEdgeStyle={&quot;curved&quot;:0,&quot;rounded&quot;:0};participant=umlActor;size=60;" parent="1" vertex="1">
          <mxGeometry x="110" y="60" width="30" height="780" as="geometry" />
        </mxCell>
        <mxCell id="-S9vXnGe0rzKB2e50dyQ-151" value="&lt;div&gt;Reset&lt;/div&gt;" style="shape=umlLifeline;perimeter=lifelinePerimeter;whiteSpace=wrap;html=1;container=1;dropTarget=0;collapsible=0;recursiveResize=0;outlineConnect=0;portConstraint=eastwest;newEdgeStyle={&quot;curved&quot;:0,&quot;rounded&quot;:0};fillColor=#97D077;" parent="1" vertex="1">
          <mxGeometry x="340" y="70" width="100" height="770" as="geometry" />
        </mxCell>
        <mxCell id="-S9vXnGe0rzKB2e50dyQ-195" value="" style="html=1;points=[[0,0,0,0,5],[0,1,0,0,-5],[1,0,0,0,5],[1,1,0,0,-5]];perimeter=orthogonalPerimeter;outlineConnect=0;targetShapes=umlLifeline;portConstraint=eastwest;newEdgeStyle={&quot;curved&quot;:0,&quot;rounded&quot;:0};" parent="-S9vXnGe0rzKB2e50dyQ-151" vertex="1">
          <mxGeometry x="45" y="100" width="10" height="140" as="geometry" />
        </mxCell>
        <mxCell id="msFe4LkzLdmL3rLmu3Hh-2" value="" style="html=1;points=[[0,0,0,0,5],[0,1,0,0,-5],[1,0,0,0,5],[1,1,0,0,-5]];perimeter=orthogonalPerimeter;outlineConnect=0;targetShapes=umlLifeline;portConstraint=eastwest;newEdgeStyle={&quot;curved&quot;:0,&quot;rounded&quot;:0};" vertex="1" parent="-S9vXnGe0rzKB2e50dyQ-151">
          <mxGeometry x="45" y="410" width="10" height="150" as="geometry" />
        </mxCell>
        <mxCell id="-S9vXnGe0rzKB2e50dyQ-154" value="&lt;div&gt;Login&lt;/div&gt;" style="shape=umlLifeline;perimeter=lifelinePerimeter;whiteSpace=wrap;html=1;container=1;dropTarget=0;collapsible=0;recursiveResize=0;outlineConnect=0;portConstraint=eastwest;newEdgeStyle={&quot;curved&quot;:0,&quot;rounded&quot;:0};fillColor=#97D077;" parent="1" vertex="1">
          <mxGeometry x="220" y="70.61" width="100" height="769.39" as="geometry" />
        </mxCell>
        <mxCell id="-S9vXnGe0rzKB2e50dyQ-193" value="" style="html=1;points=[[0,0,0,0,5],[0,1,0,0,-5],[1,0,0,0,5],[1,1,0,0,-5]];perimeter=orthogonalPerimeter;outlineConnect=0;targetShapes=umlLifeline;portConstraint=eastwest;newEdgeStyle={&quot;curved&quot;:0,&quot;rounded&quot;:0};" parent="-S9vXnGe0rzKB2e50dyQ-154" vertex="1">
          <mxGeometry x="45" y="90" width="10" height="120" as="geometry" />
        </mxCell>
        <mxCell id="msFe4LkzLdmL3rLmu3Hh-12" value="" style="html=1;points=[[0,0,0,0,5],[0,1,0,0,-5],[1,0,0,0,5],[1,1,0,0,-5]];perimeter=orthogonalPerimeter;outlineConnect=0;targetShapes=umlLifeline;portConstraint=eastwest;newEdgeStyle={&quot;curved&quot;:0,&quot;rounded&quot;:0};" vertex="1" parent="-S9vXnGe0rzKB2e50dyQ-154">
          <mxGeometry x="45" y="620" width="10" height="98.78" as="geometry" />
        </mxCell>
        <mxCell id="-S9vXnGe0rzKB2e50dyQ-156" value="Front" style="shape=umlFrame;whiteSpace=wrap;html=1;pointerEvents=0;" parent="1" vertex="1">
          <mxGeometry x="180" y="30" width="290" height="100" as="geometry" />
        </mxCell>
        <mxCell id="-S9vXnGe0rzKB2e50dyQ-157" value="&lt;div&gt;Auth Controller&lt;/div&gt;" style="shape=umlLifeline;perimeter=lifelinePerimeter;whiteSpace=wrap;html=1;container=1;dropTarget=0;collapsible=0;recursiveResize=0;outlineConnect=0;portConstraint=eastwest;newEdgeStyle={&quot;curved&quot;:0,&quot;rounded&quot;:0};fillColor=#EA6B66;" parent="1" vertex="1">
          <mxGeometry x="510" y="70" width="100" height="770" as="geometry" />
        </mxCell>
        <mxCell id="-S9vXnGe0rzKB2e50dyQ-199" value="" style="html=1;points=[[0,0,0,0,5],[0,1,0,0,-5],[1,0,0,0,5],[1,1,0,0,-5]];perimeter=orthogonalPerimeter;outlineConnect=0;targetShapes=umlLifeline;portConstraint=eastwest;newEdgeStyle={&quot;curved&quot;:0,&quot;rounded&quot;:0};" parent="-S9vXnGe0rzKB2e50dyQ-157" vertex="1">
          <mxGeometry x="45" y="160" width="10" height="170" as="geometry" />
        </mxCell>
        <mxCell id="msFe4LkzLdmL3rLmu3Hh-4" value="" style="html=1;points=[[0,0,0,0,5],[0,1,0,0,-5],[1,0,0,0,5],[1,1,0,0,-5]];perimeter=orthogonalPerimeter;outlineConnect=0;targetShapes=umlLifeline;portConstraint=eastwest;newEdgeStyle={&quot;curved&quot;:0,&quot;rounded&quot;:0};" vertex="1" parent="-S9vXnGe0rzKB2e50dyQ-157">
          <mxGeometry x="45" y="450" width="10" height="220" as="geometry" />
        </mxCell>
        <mxCell id="msFe4LkzLdmL3rLmu3Hh-10" value="updates password" style="edgeStyle=orthogonalEdgeStyle;rounded=0;orthogonalLoop=1;jettySize=auto;html=1;curved=0;" edge="1" parent="-S9vXnGe0rzKB2e50dyQ-157">
          <mxGeometry x="0.0833" y="20" relative="1" as="geometry">
            <mxPoint x="55" y="520" as="sourcePoint" />
            <mxPoint x="55" y="570" as="targetPoint" />
            <Array as="points">
              <mxPoint x="90" y="540" />
            </Array>
            <mxPoint as="offset" />
          </mxGeometry>
        </mxCell>
        <mxCell id="-S9vXnGe0rzKB2e50dyQ-162" value="MongoDb" style="shape=umlLifeline;perimeter=lifelinePerimeter;whiteSpace=wrap;html=1;container=1;dropTarget=0;collapsible=0;recursiveResize=0;outlineConnect=0;portConstraint=eastwest;newEdgeStyle={&quot;curved&quot;:0,&quot;rounded&quot;:0};fillColor=#FFD966;" parent="1" vertex="1">
          <mxGeometry x="670" y="70.61" width="100" height="769.39" as="geometry" />
        </mxCell>
        <mxCell id="-S9vXnGe0rzKB2e50dyQ-201" value="" style="html=1;points=[[0,0,0,0,5],[0,1,0,0,-5],[1,0,0,0,5],[1,1,0,0,-5]];perimeter=orthogonalPerimeter;outlineConnect=0;targetShapes=umlLifeline;portConstraint=eastwest;newEdgeStyle={&quot;curved&quot;:0,&quot;rounded&quot;:0};" parent="-S9vXnGe0rzKB2e50dyQ-162" vertex="1">
          <mxGeometry x="45" y="149.39" width="10" height="90.61" as="geometry" />
        </mxCell>
        <mxCell id="msFe4LkzLdmL3rLmu3Hh-6" value="" style="html=1;points=[[0,0,0,0,5],[0,1,0,0,-5],[1,0,0,0,5],[1,1,0,0,-5]];perimeter=orthogonalPerimeter;outlineConnect=0;targetShapes=umlLifeline;portConstraint=eastwest;newEdgeStyle={&quot;curved&quot;:0,&quot;rounded&quot;:0};" vertex="1" parent="-S9vXnGe0rzKB2e50dyQ-162">
          <mxGeometry x="45" y="479.39" width="10" height="150.61" as="geometry" />
        </mxCell>
        <mxCell id="-S9vXnGe0rzKB2e50dyQ-165" value="SendGrid" style="shape=umlLifeline;perimeter=lifelinePerimeter;whiteSpace=wrap;html=1;container=1;dropTarget=0;collapsible=0;recursiveResize=0;outlineConnect=0;portConstraint=eastwest;newEdgeStyle={&quot;curved&quot;:0,&quot;rounded&quot;:0};fillColor=#7EA6E0;" parent="1" vertex="1">
          <mxGeometry x="785" y="70.61" width="100" height="769.39" as="geometry" />
        </mxCell>
        <mxCell id="-S9vXnGe0rzKB2e50dyQ-198" value="" style="html=1;points=[[0,0,0,0,5],[0,1,0,0,-5],[1,0,0,0,5],[1,1,0,0,-5]];perimeter=orthogonalPerimeter;outlineConnect=0;targetShapes=umlLifeline;portConstraint=eastwest;newEdgeStyle={&quot;curved&quot;:0,&quot;rounded&quot;:0};" parent="-S9vXnGe0rzKB2e50dyQ-165" vertex="1">
          <mxGeometry x="45" y="259.39" width="10" height="80" as="geometry" />
        </mxCell>
        <mxCell id="-S9vXnGe0rzKB2e50dyQ-167" value="&lt;div&gt;Email Client&lt;/div&gt;" style="shape=umlLifeline;perimeter=lifelinePerimeter;whiteSpace=wrap;html=1;container=1;dropTarget=0;collapsible=0;recursiveResize=0;outlineConnect=0;portConstraint=eastwest;newEdgeStyle={&quot;curved&quot;:0,&quot;rounded&quot;:0};fillColor=#B5739D;" parent="1" vertex="1">
          <mxGeometry x="900" y="70.61" width="100" height="769.39" as="geometry" />
        </mxCell>
        <mxCell id="-S9vXnGe0rzKB2e50dyQ-206" value="" style="html=1;points=[[0,0,0,0,5],[0,1,0,0,-5],[1,0,0,0,5],[1,1,0,0,-5]];perimeter=orthogonalPerimeter;outlineConnect=0;targetShapes=umlLifeline;portConstraint=eastwest;newEdgeStyle={&quot;curved&quot;:0,&quot;rounded&quot;:0};" parent="-S9vXnGe0rzKB2e50dyQ-167" vertex="1">
          <mxGeometry x="45" y="280" width="10" height="170" as="geometry" />
        </mxCell>
        <mxCell id="-S9vXnGe0rzKB2e50dyQ-169" value="Back" style="shape=umlFrame;whiteSpace=wrap;html=1;pointerEvents=0;" parent="1" vertex="1">
          <mxGeometry x="490" y="30" width="140" height="100" as="geometry" />
        </mxCell>
        <mxCell id="-S9vXnGe0rzKB2e50dyQ-170" value="External" style="shape=umlFrame;whiteSpace=wrap;html=1;pointerEvents=0;" parent="1" vertex="1">
          <mxGeometry x="650" y="30" width="370" height="100" as="geometry" />
        </mxCell>
        <mxCell id="-S9vXnGe0rzKB2e50dyQ-197" value="types email" style="edgeStyle=orthogonalEdgeStyle;rounded=0;orthogonalLoop=1;jettySize=auto;html=1;curved=0;" parent="1" edge="1">
          <mxGeometry y="10" relative="1" as="geometry">
            <Array as="points">
              <mxPoint x="300" y="203" />
              <mxPoint x="300" y="203" />
            </Array>
            <mxPoint as="offset" />
            <mxPoint x="275" y="203" as="sourcePoint" />
            <mxPoint x="385" y="203" as="targetPoint" />
          </mxGeometry>
        </mxCell>
        <mxCell id="-S9vXnGe0rzKB2e50dyQ-200" value="creates link" style="edgeStyle=orthogonalEdgeStyle;rounded=0;orthogonalLoop=1;jettySize=auto;html=1;curved=0;" parent="1" edge="1">
          <mxGeometry x="0.0625" y="10" relative="1" as="geometry">
            <Array as="points">
              <mxPoint x="520" y="250" />
              <mxPoint x="520" y="250" />
            </Array>
            <mxPoint as="offset" />
            <mxPoint x="395" y="250" as="sourcePoint" />
            <mxPoint x="555" y="250" as="targetPoint" />
          </mxGeometry>
        </mxCell>
        <mxCell id="-S9vXnGe0rzKB2e50dyQ-203" value="sends email with link" style="edgeStyle=orthogonalEdgeStyle;rounded=0;orthogonalLoop=1;jettySize=auto;html=1;curved=0;" parent="1" edge="1">
          <mxGeometry x="-0.3487" y="10" relative="1" as="geometry">
            <mxPoint x="565" y="320" as="sourcePoint" />
            <mxPoint x="830" y="370" as="targetPoint" />
            <Array as="points">
              <mxPoint x="565" y="370" />
            </Array>
            <mxPoint as="offset" />
          </mxGeometry>
        </mxCell>
        <mxCell id="-S9vXnGe0rzKB2e50dyQ-207" value="sends email to user" style="edgeStyle=orthogonalEdgeStyle;rounded=0;orthogonalLoop=1;jettySize=auto;html=1;curved=0;" parent="1" edge="1">
          <mxGeometry y="15" relative="1" as="geometry">
            <Array as="points">
              <mxPoint x="920" y="390" />
              <mxPoint x="920" y="390" />
            </Array>
            <mxPoint as="offset" />
            <mxPoint x="840" y="390" as="sourcePoint" />
            <mxPoint x="945" y="390" as="targetPoint" />
          </mxGeometry>
        </mxCell>
        <mxCell id="-S9vXnGe0rzKB2e50dyQ-218" value="checks&amp;nbsp; email" style="edgeStyle=orthogonalEdgeStyle;rounded=0;orthogonalLoop=1;jettySize=auto;html=1;curved=0;" parent="1" edge="1">
          <mxGeometry x="-0.0291" y="10" relative="1" as="geometry">
            <Array as="points">
              <mxPoint x="640" y="260" />
              <mxPoint x="640" y="260" />
            </Array>
            <mxPoint as="offset" />
            <mxPoint x="565" y="260" as="sourcePoint" />
            <mxPoint x="719.5" y="260" as="targetPoint" />
          </mxGeometry>
        </mxCell>
        <mxCell id="-S9vXnGe0rzKB2e50dyQ-222" value="user object" style="html=1;verticalAlign=bottom;endArrow=open;dashed=1;endSize=8;curved=0;rounded=0;" parent="1" edge="1">
          <mxGeometry relative="1" as="geometry">
            <mxPoint x="715" y="290" as="sourcePoint" />
            <mxPoint x="559.6666666666665" y="290" as="targetPoint" />
            <Array as="points">
              <mxPoint x="640" y="290" />
              <mxPoint x="640" y="290" />
            </Array>
          </mxGeometry>
        </mxCell>
        <mxCell id="-S9vXnGe0rzKB2e50dyQ-223" value="generates token with link" style="edgeStyle=orthogonalEdgeStyle;rounded=0;orthogonalLoop=1;jettySize=auto;html=1;curved=0;" parent="1" edge="1">
          <mxGeometry relative="1" as="geometry">
            <mxPoint x="565" y="320" as="sourcePoint" />
            <mxPoint x="565" y="340" as="targetPoint" />
            <Array as="points">
              <mxPoint x="565" y="310" />
              <mxPoint x="630" y="310" />
              <mxPoint x="630" y="340" />
            </Array>
          </mxGeometry>
        </mxCell>
        <mxCell id="msFe4LkzLdmL3rLmu3Hh-3" value="link opens reset password form" style="edgeStyle=orthogonalEdgeStyle;rounded=0;orthogonalLoop=1;jettySize=auto;html=1;curved=0;" edge="1" parent="1" source="-S9vXnGe0rzKB2e50dyQ-206" target="msFe4LkzLdmL3rLmu3Hh-2">
          <mxGeometry x="0.1091" y="-10" relative="1" as="geometry">
            <Array as="points">
              <mxPoint x="530" y="500" />
              <mxPoint x="530" y="500" />
            </Array>
            <mxPoint as="offset" />
          </mxGeometry>
        </mxCell>
        <mxCell id="msFe4LkzLdmL3rLmu3Hh-5" value="postreset password" style="edgeStyle=orthogonalEdgeStyle;rounded=0;orthogonalLoop=1;jettySize=auto;html=1;curved=0;" edge="1" parent="1" source="msFe4LkzLdmL3rLmu3Hh-2" target="msFe4LkzLdmL3rLmu3Hh-4">
          <mxGeometry x="-0.0625" y="10" relative="1" as="geometry">
            <Array as="points">
              <mxPoint x="440" y="540" />
              <mxPoint x="440" y="540" />
            </Array>
            <mxPoint as="offset" />
          </mxGeometry>
        </mxCell>
        <mxCell id="msFe4LkzLdmL3rLmu3Hh-7" value="find user(token, expiration)" style="edgeStyle=orthogonalEdgeStyle;rounded=0;orthogonalLoop=1;jettySize=auto;html=1;curved=0;" edge="1" parent="1">
          <mxGeometry y="10" relative="1" as="geometry">
            <mxPoint x="565" y="576" as="sourcePoint" />
            <mxPoint x="715" y="576" as="targetPoint" />
            <Array as="points">
              <mxPoint x="670" y="576" />
              <mxPoint x="670" y="576" />
            </Array>
            <mxPoint as="offset" />
          </mxGeometry>
        </mxCell>
        <mxCell id="msFe4LkzLdmL3rLmu3Hh-8" value="user object" style="html=1;verticalAlign=bottom;endArrow=open;dashed=1;endSize=8;curved=0;rounded=0;" edge="1" parent="1">
          <mxGeometry relative="1" as="geometry">
            <mxPoint x="715" y="596" as="sourcePoint" />
            <mxPoint x="565" y="596" as="targetPoint" />
            <Array as="points">
              <mxPoint x="680" y="596" />
              <mxPoint x="680" y="596" />
            </Array>
          </mxGeometry>
        </mxCell>
        <mxCell id="msFe4LkzLdmL3rLmu3Hh-11" value="saves new password" style="edgeStyle=orthogonalEdgeStyle;rounded=0;orthogonalLoop=1;jettySize=auto;html=1;curved=0;" edge="1" parent="1" source="msFe4LkzLdmL3rLmu3Hh-4" target="msFe4LkzLdmL3rLmu3Hh-6">
          <mxGeometry y="10" relative="1" as="geometry">
            <Array as="points">
              <mxPoint x="600" y="660" />
              <mxPoint x="600" y="660" />
            </Array>
            <mxPoint as="offset" />
          </mxGeometry>
        </mxCell>
        <mxCell id="msFe4LkzLdmL3rLmu3Hh-13" value="redirects to login" style="edgeStyle=orthogonalEdgeStyle;rounded=0;orthogonalLoop=1;jettySize=auto;html=1;curved=0;" edge="1" parent="1" source="msFe4LkzLdmL3rLmu3Hh-4" target="msFe4LkzLdmL3rLmu3Hh-12">
          <mxGeometry x="-0.1786" y="-15" relative="1" as="geometry">
            <Array as="points">
              <mxPoint x="490" y="705" />
              <mxPoint x="490" y="705" />
            </Array>
            <mxPoint as="offset" />
          </mxGeometry>
        </mxCell>
        <mxCell id="msFe4LkzLdmL3rLmu3Hh-15" value="logins in with new password" style="edgeStyle=orthogonalEdgeStyle;rounded=0;orthogonalLoop=1;jettySize=auto;html=1;curved=0;" edge="1" parent="1" source="-S9vXnGe0rzKB2e50dyQ-147" target="msFe4LkzLdmL3rLmu3Hh-12">
          <mxGeometry x="-0.0689" y="10" relative="1" as="geometry">
            <Array as="points">
              <mxPoint x="230" y="770" />
              <mxPoint x="230" y="770" />
            </Array>
            <mxPoint as="offset" />
          </mxGeometry>
        </mxCell>
        <mxCell id="msFe4LkzLdmL3rLmu3Hh-16" value="clicks button" style="edgeStyle=orthogonalEdgeStyle;rounded=0;orthogonalLoop=1;jettySize=auto;html=1;curved=0;" edge="1" parent="1" source="-S9vXnGe0rzKB2e50dyQ-147" target="-S9vXnGe0rzKB2e50dyQ-195">
          <mxGeometry x="0.5775" y="10" relative="1" as="geometry">
            <Array as="points">
              <mxPoint x="190" y="240" />
              <mxPoint x="190" y="240" />
            </Array>
            <mxPoint as="offset" />
          </mxGeometry>
        </mxCell>
      </root>
    </mxGraphModel>
  </diagram>
</mxfile>
